<svg width="2242" height="5169" fill="none" xmlns="http://www.w3.org/2000/svg"><mask id="a" style="mask-type:alpha" maskUnits="userSpaceOnUse" x="0" y="0" width="2242" height="5169"><path d="M0 0h2242v5169H0V0Z" fill="#C4C4C4"/></mask><g mask="url(#a)"><path fill-rule="evenodd" clip-rule="evenodd" d="M-1215.94 2884.21c204.36 409.89 957.413 449.31 1681.99 88.04 724.58-361.26 1146.29-986.4 941.93-1396.28-204.36-409.89-957.416-449.31-1681.993-88.05-724.578 361.26-1146.297 986.4-941.927 1396.29Zm2821.97 1139.52c-530.18 264.33-1081.183 235.49-1230.715-64.43-149.532-299.91 159.037-757.33 689.205-1021.66 530.17-264.33 1081.18-235.49 1230.71 64.43 149.54 299.91-159.03 757.32-689.2 1021.66Zm824.25 792.85c-386.14 192.52-787.45 171.51-896.36-46.92-108.91-218.44 115.83-551.59 501.97-744.11 386.14-192.52 787.45-171.51 896.36 46.93 108.9 218.43-115.83 551.58-501.97 744.1Z" fill="url(#b)" fill-opacity=".17"/></g><defs><linearGradient id="b" x1="846.116" y1="1240.79" x2="846.116" y2="4948.28" gradientUnits="userSpaceOnUse"><stop stop-color="#6564DB"/><stop offset="1" stop-color="#31E981"/></linearGradient></defs></svg>